<svg width="16" height="16" viewBox="0 0 16 16" fill="none" xmlns="http://www.w3.org/2000/svg">
<path d="M16 16H12.8V10.4C12.8 9.04 12.24 8.16 11.04 8.16C10.08 8.16 9.6 8.8 9.36 9.44C9.28 9.6 9.28 9.84 9.28 10.08V16H6.08C6.08 16 6.12 6.4 6.08 5.6H9.28V6.96C9.68 6.32 10.48 5.36 12.24 5.36C14.4 5.36 16 6.72 16 10V16ZM1.92 4.48H1.92C0.8 4.48 0.08 3.68 0.08 2.72C0.08 1.76 0.8 0.96 1.92 0.96C3.04 0.96 3.76 1.76 3.76 2.72C3.76 3.68 3.04 4.48 1.92 4.48ZM0.32 16H3.52V5.6H0.32V16Z" fill="white" fill-opacity="0.4"/>
</svg>
