<svg width="16" height="16" viewBox="0 0 16 16" fill="none" xmlns="http://www.w3.org/2000/svg">
<path d="M14.6667 1.26875C15.3333 1.93542 15.6667 2.73542 15.6667 3.66875V12.3354C15.6667 13.2688 15.3333 14.0688 14.6667 14.7354C14 15.4021 13.2 15.7354 12.2667 15.7354H3.6C2.66667 15.7354 1.86667 15.4021 1.2 14.7354C0.533333 14.0688 0.2 13.2688 0.2 12.3354V3.66875C0.2 2.73542 0.533333 1.93542 1.2 1.26875C1.86667 0.602083 2.66667 0.26875 3.6 0.26875H12.2667C13.2 0.26875 14 0.602083 14.6667 1.26875ZM7.93333 13.5354C9.06667 13.5354 10.0667 13.2021 10.9333 12.5354C11.8 11.8688 12.2333 11.0021 12.2333 9.93542C12.2333 9.20208 12 8.56875 11.5333 8.03542C11.0667 7.50208 10.4667 7.13542 9.73333 6.93542C9.86667 6.66875 9.93333 6.40208 9.93333 6.13542C9.93333 5.80208 9.86667 5.50208 9.73333 5.23542C9.2 5.26875 8.66667 5.46875 8.13333 5.83542C7.6 6.20208 7.26667 6.60208 7.13333 7.03542C6.73333 6.96875 6.33333 6.93542 5.93333 6.93542C5.53333 6.93542 5.13333 6.96875 4.73333 7.03542C4.6 6.60208 4.26667 6.20208 3.73333 5.83542C3.2 5.46875 2.66667 5.26875 2.13333 5.23542C2 5.50208 1.93333 5.80208 1.93333 6.13542C1.93333 6.40208 2 6.66875 2.13333 6.93542C1.4 7.13542 0.8 7.50208 0.333333 8.03542C-0.133333 8.56875 -0.366667 9.20208 -0.366667 9.93542C-0.366667 11.0021 0.0666667 11.8688 0.933333 12.5354C1.8 13.2021 2.8 13.5354 3.93333 13.5354H7.93333Z" fill="white" fill-opacity="0.4"/>
</svg>
