<svg width="16" height="16" viewBox="0 0 16 16" fill="none" xmlns="http://www.w3.org/2000/svg">
<path d="M8 3.89062C10.2688 3.89062 12.1094 5.73125 12.1094 8C12.1094 10.2688 10.2688 12.1094 8 12.1094C5.73125 12.1094 3.89062 10.2688 3.89062 8C3.89062 5.73125 5.73125 3.89062 8 3.89062ZM8 10.6656C9.46875 10.6656 10.6656 9.46875 10.6656 8C10.6656 6.53125 9.46875 5.33438 8 5.33438C6.53125 5.33438 5.33438 6.53125 5.33438 8C5.33438 9.46875 6.53125 10.6656 8 10.6656ZM13.2313 3.73125C13.2313 4.26875 12.7969 4.70312 12.2594 4.70312C11.7219 4.70312 11.2875 4.26875 11.2875 3.73125C11.2875 3.19375 11.7219 2.75938 12.2594 2.75938C12.7969 2.75938 13.2313 3.19375 13.2313 3.73125ZM15.9406 4.70312C16.0188 6.15938 16.0188 9.84062 15.9406 11.2969C15.8656 12.6719 15.5594 13.8719 14.5969 14.8344C13.6344 15.7969 12.4344 16.1031 11.0594 16.1781C9.60312 16.2562 5.92188 16.2562 4.46562 16.1781C3.09062 16.1031 1.89062 15.7969 0.928125 14.8344C-0.034375 13.8719 -0.340625 12.6719 -0.415625 11.2969C-0.49375 9.84062 -0.49375 6.15938 -0.415625 4.70312C-0.340625 3.32812 -0.034375 2.12812 0.928125 1.16562C1.89062 0.203125 3.09062 -0.103125 4.46562 -0.178125C5.92188 -0.25625 9.60312 -0.25625 11.0594 -0.178125C12.4344 -0.103125 13.6344 0.203125 14.5969 1.16562C15.5594 2.12812 15.8656 3.32812 15.9406 4.70312ZM14.2344 12.7969C14.6344 11.8 14.5469 9.2875 14.5469 8C14.5469 6.7125 14.6344 4.2 14.2344 3.20312C13.9469 2.525 13.475 2.05312 12.7969 1.76562C11.8 1.36562 9.2875 1.45312 8 1.45312C6.7125 1.45312 4.2 1.36562 3.20312 1.76562C2.525 2.05312 2.05312 2.525 1.76562 3.20312C1.36562 4.2 1.45312 6.7125 1.45312 8C1.45312 9.2875 1.36562 11.8 1.76562 12.7969C2.05312 13.475 2.525 13.9469 3.20312 14.2344C4.2 14.6344 6.7125 14.5469 8 14.5469C9.2875 14.5469 11.8 14.6344 12.7969 14.2344C13.475 13.9469 13.9469 13.475 14.2344 12.7969Z" fill="white" fill-opacity="0.4"/>
</svg>
