<svg width="16" height="16" viewBox="0 0 16 16" fill="none" xmlns="http://www.w3.org/2000/svg">
<path d="M15.8406 4.26719C15.6594 3.56719 15.1156 3.01719 14.4219 2.83594C13.1656 2.5 8 2.5 8 2.5C8 2.5 2.83437 2.5 1.57812 2.83594C0.884375 3.01719 0.340625 3.56719 0.159375 4.26719C-0.172656 5.53281 -0.172656 8.18281 -0.172656 8.18281C-0.172656 8.18281 -0.172656 10.8328 0.159375 12.0984C0.340625 12.7984 0.884375 13.3328 1.57812 13.5141C2.83437 13.85 8 13.85 8 13.85C8 13.85 13.1656 13.85 14.4219 13.5141C15.1156 13.3328 15.6594 12.7984 15.8406 12.0984C16.1727 10.8328 16.1727 8.18281 16.1727 8.18281C16.1727 8.18281 16.1727 5.53281 15.8406 4.26719ZM6.4 10.6828V5.68281L10.5625 8.18281L6.4 10.6828Z" fill="white" fill-opacity="0.4"/>
</svg>
