<svg width="83" height="20" viewBox="0 0 83 20" fill="none" xmlns="http://www.w3.org/2000/svg">
    <path d="M9.296 6.61h.237c.798-.007.798-.007 1.17.098l.092.025c.088.026.174.054.26.083l.093.031c.97.338 1.866.923 2.613 1.624.08.074.16.145.242.217a5.874 5.874 0 0 1 1.898 3.968l.004.067c.049 1.081-.245 2.187-.76 3.134l-.032.06A6.669 6.669 0 0 1 13.363 18l-.09.073c-2.01 1.584-4.723 2.135-7.23 1.859-1.609-.194-3.226-.738-4.466-1.81l-.073-.064a10.211 10.211 0 0 1-.274-.25A5.757 5.757 0 0 1 .157 16.4l-.036-.06c-.024-.06-.024-.06-.019-.124.03-.07.058-.092.121-.135l.062-.042.067-.045.142-.097.074-.05c.115-.08.228-.162.34-.245.212-.153.426-.301.642-.447.19-.13.376-.265.561-.402.133-.098.268-.192.403-.285.12.05.207.132.302.217a8.951 8.951 0 0 0 2.69 1.625l.066.025c1.392.522 2.936.501 4.292-.112.993-.467 1.77-1.254 2.162-2.282a2.913 2.913 0 0 0-.118-2.232c-.256-.51-.643-.922-1.087-1.275a6.356 6.356 0 0 1-.34-.305l-.098-.09c-.123-.115-.252-.224-.38-.333l-.108-.092-.055-.047a13.215 13.215 0 0 1-.396-.355 5.517 5.517 0 0 0-.293-.25 8.775 8.775 0 0 1-.496-.442 12.088 12.088 0 0 0-.435-.384l-.108-.092-.055-.047a13.228 13.228 0 0 1-.396-.355 5.517 5.517 0 0 0-.293-.25A7.4 7.4 0 0 1 6.928 7a6.795 6.795 0 0 0-.325-.287l-.04-.036v-.03c.911-.018 1.822-.034 2.733-.037z" fill="#fff"/>
    <path d="M8.489.002c2.243-.04 4.558.64 6.193 2.217.405.397.73.826 1.008 1.319l.035.057c.03.05.059.102.086.154-.035.104-.055.116-.143.174l-.071.047-.077.051-.16.107-.079.053c-.102.07-.2.142-.3.216-.172.128-.348.252-.524.375-.247.171-.49.346-.734.522l-.06.043c-.04.029-.078.058-.116.088-.056.043-.056.043-.154.106-.114-.015-.166-.065-.247-.144-.217-.2-.453-.375-.69-.55l-.054-.042c-1.157-.867-2.543-1.434-3.995-1.499-.029 0-.057-.002-.087-.004a5.001 5.001 0 0 0-3.546 1.36c-.654.639-1.066 1.483-1.092 2.403.027.894.419 1.619 1.051 2.238.104.096.212.183.322.271.099.081.192.167.285.254.117.11.235.215.36.315.153.122.294.253.435.386.105.098.211.19.323.28.151.121.292.251.433.384.104.098.21.191.323.28.172.138.331.288.492.439.141.132.287.258.434.383l.109.092.055.047c.119.102.236.207.35.313.14.13.284.25.434.367.086.076.153.158.226.247-.705.033-1.41.038-2.115.04l-.392.003a59.565 59.565 0 0 1-.662.004 3.899 3.899 0 0 1-1.59-.308l-.096-.04a7.909 7.909 0 0 1-2.37-1.55c-.059-.056-.12-.109-.184-.16a1.44 1.44 0 0 1-.185-.184 7.84 7.84 0 0 0-.238-.266C.386 9.672-.06 8.17.007 6.557a3.987 3.987 0 0 1 .108-.689 6.482 6.482 0 0 1 .677-1.815c.257-.493.587-.942.977-1.339l.17-.176c.281-.292.576-.548.908-.781l.067-.047A9.193 9.193 0 0 1 5.324.518l.09-.03C6.41.167 7.446.037 8.489.002zM75.105 2.849h1.724c.14.178.27.352.394.54l.05.078.109.164.292.443.061.092c.212.32.427.637.643.954l.056.083.11.162.054.079.053.077c.14.206.279.412.417.619l.47.698.055.08.266.391c.404.595.804 1.194 1.205 1.791l.03-6.251H83v9.648h-1.724c-.27-.37-.27-.37-.383-.54l-.078-.116c-.013-.02-.027-.04-.04-.062l-.234-.344A148.43 148.43 0 0 1 79.4 9.74c-.307-.463-.617-.924-.931-1.383-.175-.255-.349-.511-.523-.768l-.212-.313c-.233-.342-.463-.686-.694-1.03l-.03 6.252h-1.906V2.849zM61.645 2.939l.061.02c.479.156.936.389 1.33.701l.073.054a4.532 4.532 0 0 1 1.228 1.441 4.743 4.743 0 0 1 .612 2.298c.01 1.368-.338 2.559-1.217 3.631l-.04.05a1.73 1.73 0 0 1-.227.234c-.092.078-.092.078-.182.157-.52.473-1.158.78-1.829.977l-.073.022c-.446.126-.89.17-1.352.165l-.074-.001c-.36-.002-.711-.014-1.063-.101l-.076-.019a5.422 5.422 0 0 1-1.128-.411c-1.094-.52-1.914-1.532-2.323-2.652a5.486 5.486 0 0 1-.295-1.798v-.063a5.61 5.61 0 0 1 .132-1.189l.015-.067c.263-1.169 1-2.255 2.018-2.904a5.284 5.284 0 0 1 4.41-.545zm-2.45 1.653-.114.031c-.404.122-.75.32-1.066.6l-.075.066c-.603.563-.93 1.407-.96 2.22-.02.873.2 1.737.793 2.403l.045.056c.199.248.465.424.742.575l.072.04c.655.347 1.517.406 2.228.208l.12-.037.06-.02c.75-.248 1.31-.79 1.666-1.485.41-.86.46-1.9.138-2.796-.145-.36-.333-.7-.594-.99l-.07-.091c-.473-.514-1.193-.835-1.89-.875-.375-.015-.733-.007-1.095.095zM66.364 2.849c5.089 0 5.089 0 6.168 1.04.62.643.846 1.453.828 2.326a2.769 2.769 0 0 1-.735 1.773l-.057.065c-.237.251-.543.44-.85.597.052.152.137.284.22.42l.05.08c.145.24.293.477.441.714.289.462.575.925.859 1.39.135.221.272.442.41.661.12.192.234.386.349.582h-2.208l-.424-.752-.317-.54c-.109-.184-.214-.37-.318-.557-.157-.28-.318-.56-.482-.836-.145-.246-.285-.493-.425-.742l-1.604-.03v3.457h-1.905V2.849zm1.905 1.773v2.795l.757.004.235.002c.657.002 1.283.003 1.798-.456a1.26 1.26 0 0 0 .356-.812l.008-.107a1.472 1.472 0 0 0-.4-1.01c-.393-.359-.93-.426-1.44-.422h-.1l-.372.002-.842.004zM28.816 3.493c.408.363.771.858.887 1.4v.12a674.225 674.225 0 0 1-1.476.356l-.107.026-.094.023c-.077.016-.077.016-.168.016l-.024-.069c-.157-.406-.384-.66-.785-.84a2.857 2.857 0 0 0-.25-.083l-.075-.022a1.934 1.934 0 0 0-1.373.208 1.071 1.071 0 0 0-.457.625c-.013.09-.015.177-.013.267v.072c.01.296.1.498.308.712.363.327.898.434 1.363.54l.367.087.073.017c.29.07.58.145.866.229l.07.02c.526.155 1.057.368 1.473.731l.073.064c.405.373.592.872.629 1.41l.003.277v.1a2.82 2.82 0 0 1-.736 1.876l-.047.055c-.577.62-1.515.929-2.346.97a9.484 9.484 0 0 1-.264.004h-.304c-.38 0-.75-.011-1.122-.097l-.073-.016c-.622-.141-1.228-.372-1.712-.796l-.075-.061c-.421-.356-.746-.84-.862-1.381.212-.088.426-.163.646-.23l.096-.03.198-.062.305-.095.193-.06.092-.029.085-.026.075-.023c.064-.016.064-.016.155-.016l.026.07c.178.457.472.755.919.965.64.272 1.444.29 2.093.037.33-.15.544-.318.678-.66a1.047 1.047 0 0 0-.056-.773c-.199-.339-.63-.47-.99-.57l-.083-.022a16.283 16.283 0 0 0-.82-.198c-1.776-.393-1.776-.393-2.402-.983l-.078-.07c-.487-.458-.719-1.086-.743-1.743-.015-.858.238-1.603.83-2.237 1.285-1.203 3.703-1.22 5.032-.085zM45.583 2.849h2.027a3677.456 3677.456 0 0 1 .785 2.294 906.646 906.646 0 0 1 .904 2.634l.312.909.032.094.154.451.058.167a110.458 110.458 0 0 0 .182.526l.034.096.066.184.03.083.026.073a.364.364 0 0 1 .018.153h.06l.025-.117c.034-.152.081-.296.132-.443l.03-.084a111.33 111.33 0 0 1 .164-.478l.11-.317a324.496 324.496 0 0 0 .57-1.671l.04-.119A2432.65 2432.65 0 0 1 52.4 4.183l.102-.3.029-.084c.108-.32.226-.634.342-.95H54.9c-.102.338-.102.338-.148.465l-.032.088a53.6 53.6 0 0 1-.033.092l-.036.1-.116.322-.062.17a935.16 935.16 0 0 1-.67 1.852l-.469 1.297-.718 1.984-.066.18-.032.09-.237.656c-.284.785-.57 1.569-.86 2.352h-2.36a11.624 11.624 0 0 1-.263-.673l-.064-.18c-.01-.032-.022-.063-.033-.095-.208-.593-.42-1.183-.637-1.772a137.33 137.33 0 0 1-.577-1.597 318.006 318.006 0 0 0-.992-2.764l-.146-.405a177.905 177.905 0 0 0-.623-1.708l-.057-.155-.027-.071c-.059-.161-.059-.161-.059-.228zM30.187 2.849h2.118l.363.66c.131.232.131.232.264.462a311.078 311.078 0 0 1 .368.637c.146.254.29.508.434.764.334.595.677 1.185 1.02 1.775a1.97 1.97 0 0 0 .178-.271l.05-.09.054-.098c.146-.26.293-.517.445-.774.144-.243.285-.489.423-.736.155-.277.314-.552.476-.825.13-.22.256-.442.38-.665.428-.762.428-.762.505-.84.064-.002.128-.003.193-.003h.26a212.521 212.521 0 0 0 .503.002h.371l.73.002a1 1 0 0 1-.136.306l-.032.055-.104.174-.067.113-.374.624c-.132.216-.261.434-.39.651-.153.255-.305.51-.459.764l-.342.57-.561.936a185.236 185.236 0 0 0-.56.93c-.01.02-.022.039-.034.058l-.032.055-.068.115a2.712 2.712 0 0 1-.186.284c-.283.39-.266.78-.26 1.245l-.001.24c0 .188 0 .376.002.564v.707c0 .419.002.838.005 1.257h-1.906l.003-.773v-1.259c.001-.187.002-.375 0-.562l.001-.297c.005-.467-.011-.795-.306-1.167a3.605 3.605 0 0 1-.08-.132l-.032-.054-.031-.052-.036-.06-.145-.243c-.129-.216-.257-.431-.387-.646-.155-.255-.307-.511-.46-.767-.129-.216-.257-.431-.387-.646-.155-.255-.307-.51-.46-.767l-.387-.645a77.957 77.957 0 0 1-.281-.469l-.037-.06-.146-.248-.11-.184-.036-.059a10.994 10.994 0 0 0-.276-.437c-.037-.061-.037-.061-.037-.121zM40.41 2.849h1.907v7.905h3.72v1.743h-5.626V2.849zM35.927 15.668c2.19 0 2.19 0 2.66.392.215.22.3.507.303.809-.02.355-.178.574-.424.819l.053.031c.255.158.405.34.5.627.068.309.06.671-.11.946-.257.356-.561.512-.987.597h-1.995v-4.221zm.846.754v.995l.393.005.123.003c.317.006.317.006.589-.143a.483.483 0 0 0 .142-.372l.002-.095c-.012-.112-.025-.157-.1-.243-.233-.17-.465-.169-.744-.16l-.405.01zm0 1.688v1.055l.467.008.145.003c.369.003.369.003.678-.18a.573.573 0 0 0 .131-.434.54.54 0 0 0-.176-.328c-.167-.11-.307-.131-.507-.13h-.117l-.148.002-.473.004zM30.339 15.664h.126l.067.001a75.086 75.086 0 0 1 .356.001l.353.002c.085.184.16.369.228.56l.03.084.1.277.07.197.154.428.267.743.047.13.094.26.023.063.045.127c.163.45.325.9.484 1.352h-.907a9.271 9.271 0 0 1-.224-.603c-.048-.143-.048-.143-.048-.211h-1.723l-.09.332-.08.244-.02.06c-.048.144-.048.144-.082.178a4.357 4.357 0 0 1-.314.003l-.126-.001h-.127l-.31-.002a3.852 3.852 0 0 1 .198-.663l.105-.285.073-.201.152-.419c.11-.302.219-.604.327-.907l.47-1.297c.022-.057.043-.114.063-.172l.037-.1.031-.085c.04-.097.039-.092.15-.096zm.388.908-.224.658-.105.305-.12.35a39.642 39.642 0 0 1-.072.214l-.031.09c-.025.069-.025.069-.022.132h1.179c-.068-.252-.068-.252-.146-.5l-.029-.085a306.865 306.865 0 0 1-.4-1.164h-.03zM44.815 15.91c.085.075.085.075.15.15l.076.079c.105.126.227.327.227.494l-.355.09-.102.026-.098.025-.09.023c-.08.017-.08.017-.201.017l-.021-.049c-.08-.17-.153-.275-.335-.346a.944.944 0 0 0-.66.037c-.123.07-.186.127-.224.267a.585.585 0 0 0 .048.371c.214.236.544.29.843.363.917.224.917.224 1.165.532.196.328.232.67.16 1.043-.108.35-.341.613-.663.79-.53.242-1.189.221-1.734.037a1.49 1.49 0 0 1-.79-.687c-.032-.081-.043-.161-.056-.248a270.541 270.541 0 0 1 .481-.155l.103-.033.095-.031c.076-.022.076-.022.137-.022l.047.11c.09.176.217.291.4.369.26.074.613.086.864-.02.127-.07.214-.138.26-.278.016-.131.018-.238-.043-.356-.24-.204-.576-.247-.874-.316-.453-.107-.9-.247-1.168-.655a1.32 1.32 0 0 1-.151-.512l-.005-.06c-.015-.352.1-.683.338-.942.561-.529 1.557-.583 2.176-.114zM23.29 15.668h.847v3.437h1.633v.784h-2.48v-4.221z" fill="#fff"/>
</svg>
